<svg xmlns="http://www.w3.org/2000/svg" enable-background="new 0 0 512 512" viewBox="0 0 512 512" id="environment"><linearGradient id="a" x1="256.001" x2="256.001" y1="-10.851" y2="519.918" gradientUnits="userSpaceOnUse"><stop offset="0" stop-color="#bae385"></stop><stop offset=".517" stop-color="#6fc500"></stop><stop offset="1" stop-color="#006c00"></stop></linearGradient><path fill="url(#a)" d="M256.001,511.932c105.867,0,192-86.133,192-192c0-80.411-49.713-149.394-120-177.939v-6.061
	c0-21.402-18.703-29.488-32.848-31.477c-3.712-15.505-18.867-21.884-31.09-23.793v-10.04c17.161-1.37,30.719-7.384,40.363-17.944
	c17.031-18.648,14.906-44.383,14.809-45.469c-0.375-4.121-3.832-7.277-7.969-7.277c-20.895,0-37.098,6.141-48.16,18.254
	c-2.821,3.089-5.075,6.378-6.941,9.712c-1.866-3.334-4.12-6.623-6.941-9.712c-11.062-12.113-27.266-18.254-48.16-18.254
	c-4.137,0-7.594,3.156-7.969,7.277c-0.098,1.086-2.223,26.82,14.809,45.469c9.605,10.518,23.098,16.518,40.16,17.92v10.045
	c-12.244,1.883-27.49,8.253-31.215,23.812c-14.145,1.988-32.848,10.074-32.848,31.477v6.061c-70.287,28.546-120,97.528-120,177.939
	C64.001,425.799,150.133,511.932,256.001,511.932z M80.07,322.673l18.29,13.692c7.613,5.707,16.172,9.953,25.469,12.629l15.211,4.32
	c5.996,1.738,10.613,6.355,12.336,12.305l4.695,16.586c2.219,7.727,6.371,14.789,11.98,20.398
	c10.999,11.11,25.179,34.726,2.315,71.013C117.261,443.907,81.069,387.495,80.07,322.673z M184.734,480.8
	c28.607-46.583,6.218-77.809-5.343-89.481c-3.777-3.777-6.445-8.328-7.93-13.5l-4.703-16.605
	c-3.27-11.293-11.969-19.992-23.309-23.277l-15.223-4.324c-7.395-2.129-14.215-5.508-20.273-10.055L80.813,303.24
	c1.434-15.164,4.777-29.78,9.825-43.586c9.496-1.487,18.68-0.368,28.319,0.988c6.859,0.965,13.988,1.969,21.484,1.969
	c18.121,0,38.379-5.863,62.152-32.301c14.984-16.664,21.211-32.754,18.504-47.82c-1.979-11.005-8.845-21.097-20.005-29.742
	c13.41-4.416,27.522-7.249,42.128-8.303c0.922,22.928,1.642,70.766-6.682,95.791c-7.465,22.359,2.105,29.922,6.566,32.133
	c2.461,1.223,5.168,1.812,8.055,1.812c12.75,0,28.914-11.52,42.133-30.875c1.855-2.719,4.965-4.406,8.113-4.406h32.348
	c13.043,0,25.812-5.289,35.039-14.512l19.893-19.893c19.696,22.61,33.744,50.254,39.864,80.75
	c-75.369-9.982-125.068-6.483-147.675,10.483c-15.25,11.438-23.875,24.312-25.629,38.266c-2.039,16.211,5.605,29.656,12.379,38.082
	c1,1.242,0.996,3.09-0.004,4.492l-8.395,11.777c-11.297,15.801-15.223,35.691-10.773,54.562l12.456,52.899
	c-1.635,0.045-3.263,0.125-4.909,0.125C230.64,495.932,206.538,490.497,184.734,480.8z M251.719,245.295
	c9.019-27.108,8.571-75.04,7.499-101.282c45.885,0.83,87.516,19.291,118.423,48.902l-20.16,20.157
	c-6.246,6.246-14.895,9.828-23.727,9.828h-32.348c-8.484,0-16.457,4.254-21.324,11.383c-13.785,20.191-27.402,25-29.777,23.824
	C249.872,257.592,248.848,253.904,251.719,245.295z M277.065,494.627l-13.041-55.387c-3.391-14.383-0.395-29.543,8.227-41.598
	l8.398-11.785c5.145-7.211,4.914-17-0.555-23.805c-4.832-6.012-10.312-15.414-8.973-26.062c1.191-9.488,7.703-18.727,19.355-27.465
	c19.055-14.279,68.893-16.637,140.584-6.789c0.617,5.983,0.939,12.052,0.939,18.195C432.001,409.846,364.21,484.179,277.065,494.627
	z M275.008,28.877c6.508-7.07,15.93-11.273,28.07-12.539c-0.711,7.035-3.09,17.531-10.555,25.648
	c-6.508,7.07-15.93,11.273-28.07,12.539C265.165,47.49,267.544,36.994,275.008,28.877z M219.805,41.986
	c-7.469-8.117-9.844-18.621-10.555-25.648c12.141,1.266,21.562,5.469,28.07,12.539c7.465,8.117,9.844,18.613,10.555,25.648
	C235.735,53.26,226.313,49.057,219.805,41.986z M200.001,135.932c0-15.668,23.043-15.992,24-16c4.418,0,8-3.582,8-8
	c0-15.668,23.043-15.992,23.977-16c0.98,0.008,24.023,0.332,24.023,16c0,4.398,3.578,7.973,7.977,8
	c0.98,0.008,24.023,0.332,24.023,16v0.353c-17.726-5.417-36.524-8.353-56-8.353s-38.274,2.937-56,8.353V135.932z M183.006,159.846
	c9.715,5.608,20.307,14.146,22.346,25.477c1.789,9.953-3.145,21.488-14.656,34.293c-27.898,31.035-47.18,28.336-69.512,25.184
	c-7.531-1.056-15.227-2.132-23.364-1.956C115.713,206.276,145.925,176.822,183.006,159.846z"></path><linearGradient id="b" x1="202.412" x2="202.412" y1="-10.851" y2="519.918" gradientUnits="userSpaceOnUse"><stop offset="0" stop-color="#bae385"></stop><stop offset=".517" stop-color="#6fc500"></stop><stop offset="1" stop-color="#006c00"></stop></linearGradient><path fill="url(#b)" d="M234.528,314.561c-0.477-2.879-1.824-5.496-3.895-7.566l-14.723-14.723
	c-2.633-2.633-6.129-4.082-9.852-4.082h-22.586c-6.406,0-11.965,4.34-13.52,10.559l-3.902,15.621
	c-1.297,5.152,0.504,10.684,4.594,14.094l31.094,25.91c2.5,2.086,5.668,3.234,8.926,3.234h14.586c4.105,0,7.984-1.797,10.641-4.934
	c2.648-3.133,3.781-7.25,3.105-11.293L234.528,314.561z M211.415,341.607l-29.531-24.605l3.203-12.812h20.117l13.652,13.652
	l3.957,23.766H211.415z"></path></svg>