<svg xmlns="http://www.w3.org/2000/svg" enable-background="new 0 0 512 512" viewBox="0 0 512 512" id="innovation-ideas"><linearGradient id="a" x1="105.75" x2="405.316" y1="378.635" y2="79.069" gradientUnits="userSpaceOnUse"><stop offset="0" stop-color="#be53ff"></stop><stop offset="1" stop-color="#4958ff"></stop></linearGradient><path fill="url(#a)" d="M253.31,19.126V5.121c0-2.83,2.292-5.12,5.12-5.12c2.828,0,5.12,2.29,5.12,5.12v14.005c0,2.83-2.292,5.12-5.12,5.12C255.602,24.246,253.31,21.956,253.31,19.126z M201.245,28.361c0.874,2.702,3.777,4.163,6.445,3.295c2.693-0.865,4.167-3.75,3.3-6.445l-4.115-12.745c-0.87-2.685-3.747-4.175-6.445-3.295c-2.692,0.865-4.167,3.75-3.3,6.445L201.245,28.361z M154.69,53.576c1.671,2.3,4.881,2.792,7.152,1.14c2.288-1.66,2.798-4.865,1.137-7.15l-7.717-10.635c-1.662-2.29-4.863-2.805-7.152-1.14c-2.288,1.66-2.798,4.865-1.137,7.15L154.69,53.576z M393.11,279.126c-2.292-1.67-5.49-1.16-7.152,1.13c-1.662,2.29-1.155,5.49,1.133,7.15l12.12,8.805c2.267,1.657,5.482,1.169,7.152-1.13c1.663-2.29,1.155-5.49-1.132-7.15L393.11,279.126z M118.38,92.221c2.297,1.666,5.496,1.14,7.153-1.14c1.66-2.285,1.15-5.49-1.138-7.15l-10.635-7.715c-2.29-1.655-5.493-1.145-7.153,1.14c-1.66,2.285-1.15,5.49,1.138,7.15L118.38,92.221z M429.015,237.686l-13.893-4.515c-2.693-0.865-5.575,0.605-6.452,3.285c-0.873,2.69,0.597,5.58,3.287,6.455l13.893,4.515c2.669,0.864,5.57-0.579,6.452-3.29C433.175,241.451,431.705,238.561,429.015,237.686z M83.217,136.111l12.693,4.12c2.664,0.863,5.569-0.576,6.45-3.29c0.872-2.69-0.6-5.575-3.29-6.45l-12.692-4.12c-2.69-0.865-5.577,0.6-6.45,3.29C79.055,132.351,80.527,135.236,83.217,136.111z M436.122,182.551h-14.005c-2.827,0-5.12,2.29-5.12,5.12s2.293,5.12,5.12,5.12h14.005c2.828,0,5.12-2.29,5.12-5.12S438.95,182.551,436.122,182.551z M95.005,187.671c0-2.83-2.292-5.12-5.12-5.12H75.878c-2.827,0-5.12,2.29-5.12,5.12s2.293,5.12,5.12,5.12h14.007C92.713,192.791,95.005,190.501,95.005,187.671z M416.492,141.661l12.52-4.06c2.69-0.87,4.162-3.76,3.29-6.45c-0.87-2.69-3.753-4.155-6.45-3.29l-12.52,4.06c-2.69,0.87-4.162,3.76-3.29,6.45C410.923,141.084,413.828,142.524,416.492,141.661z M97.342,234.601l-14.122,4.575c-2.69,0.87-4.165,3.76-3.293,6.45c0.867,2.682,3.755,4.162,6.448,3.29l14.122-4.575c2.69-0.87,4.165-3.76,3.293-6.45C102.923,235.206,100.04,233.731,97.342,234.601z M399.205,79.076l-9.89,7.205c-2.285,1.665-2.788,4.87-1.122,7.155c1.672,2.293,4.869,2.781,7.152,1.125l9.89-7.205c2.285-1.665,2.788-4.87,1.123-7.155C404.695,77.916,401.495,77.416,399.205,79.076z M120.668,281.406l-12.923,9.375c-2.288,1.66-2.798,4.865-1.138,7.15c1.657,2.281,4.857,2.805,7.153,1.14l12.923-9.375c2.287-1.66,2.797-4.865,1.137-7.15C126.155,280.256,122.96,279.741,120.668,281.406z M360.51,55.866l6.517-8.98c1.663-2.285,1.152-5.49-1.135-7.15c-2.283-1.66-5.492-1.145-7.15,1.14l-6.517,8.98c-1.663,2.285-1.152,5.49,1.135,7.15C355.636,58.661,358.846,58.162,360.51,55.866z M308.655,33.031c2.666,0.867,5.569-0.588,6.448-3.295l3.087-9.55c0.87-2.69-0.608-5.575-3.298-6.445c-2.7-0.885-5.575,0.61-6.447,3.295l-3.087,9.55C304.487,29.276,305.965,32.161,308.655,33.031z M329.217,170.905l19.866,6.861v14.899l-19.917,6.912c-1.638,0.563-2.867,1.946-3.277,3.584c-1.741,6.707-4.352,13.056-7.783,18.791c-0.87,1.485-0.973,3.328-0.205,4.864l9.165,18.995l-10.496,10.496l-18.995-9.165c-1.536-0.768-3.328-0.666-4.813,0.154c-5.939,3.533-12.288,6.144-18.79,7.783c-1.69,0.409-3.021,1.638-3.584,3.276l-6.912,19.917h-14.899l-6.963-19.917c-0.563-1.638-1.894-2.867-3.584-3.276c-6.502-1.639-12.851-4.25-18.79-7.783c-1.433-0.819-3.277-0.922-4.813-0.154l-18.995,9.165l-10.496-10.496l9.165-18.995c0.768-1.536,0.717-3.379-0.205-4.864c-3.482-5.888-6.093-12.186-7.731-18.739c-0.409-1.689-1.638-3.072-3.277-3.635l-19.917-6.912v-14.899l19.917-6.912c1.638-0.563,2.867-1.894,3.277-3.584c1.638-6.502,4.25-12.851,7.731-18.79c0.871-1.485,0.973-3.277,0.205-4.813l-9.165-18.996l10.547-10.496l18.944,9.164c1.536,0.768,3.379,0.666,4.864-0.204c5.734-3.482,12.083-6.093,18.79-7.783c1.638-0.41,2.97-1.639,3.533-3.277l6.963-19.917h14.899l6.861,19.866c0.563,1.638,1.894,2.867,3.584,3.277c6.656,1.689,13.005,4.352,18.842,7.834c1.485,0.87,3.328,0.972,4.864,0.204l18.944-9.164l10.496,10.496l-9.165,18.996c-0.717,1.536-0.666,3.327,0.205,4.813c3.533,5.939,6.144,12.288,7.834,18.841C326.35,169.011,327.579,170.342,329.217,170.905z M288.411,152.883c-17.869-17.869-46.95-17.869-64.819,0c-17.818,17.817-17.766,46.848,0.103,64.717c17.924,17.924,46.952,17.713,64.666,0C306.228,199.731,306.228,170.7,288.411,152.883z M230.855,160.111c-13.84,13.84-13.817,36.39,0.055,50.26c13.84,13.83,36.362,13.84,50.202,0c13.87-13.87,13.898-36.42,0.058-50.26C267.294,146.235,244.731,146.239,230.855,160.111z M404.686,185.241c0,40.192-15.718,77.824-44.237,105.984c-26.317,25.907-43.059,49.459-44.647,84.889c-0.87-0.158,1.778-0.103-54.63-0.103v-60.467c0-2.816-2.304-5.12-5.12-5.12c-2.867,0-5.12,2.304-5.12,5.12v60.467c-56.879,0-53.681-0.057-54.477,0.103c-1.638-35.43-18.432-58.983-44.749-84.787c-28.621-28.211-44.339-65.894-44.339-106.087c0-81.971,66.713-148.633,148.685-148.633S404.686,103.269,404.686,185.241z M359.323,174.131c0-2.151-1.382-4.096-3.43-4.813l-20.787-7.22c-1.638-5.683-3.943-11.161-6.81-16.435l9.574-19.814c0.922-1.946,0.563-4.301-0.973-5.838l-15.667-15.667c-1.536-1.536-3.891-1.946-5.837-0.973l-19.814,9.575c-5.171-2.868-10.701-5.171-16.435-6.81l-7.219-20.787c-0.717-2.048-2.662-3.43-4.813-3.43h-22.169c-2.202,0-4.147,1.382-4.864,3.43l-7.219,20.839c-5.786,1.639-11.264,3.942-16.435,6.759l-19.763-9.575c-1.946-0.972-4.301-0.563-5.837,0.973l-15.667,15.667c-1.536,1.536-1.946,3.891-1.024,5.838l9.574,19.814c-2.867,5.274-5.12,10.752-6.758,16.435l-20.787,7.22c-2.048,0.716-3.43,2.662-3.43,4.813V196.3c0,2.202,1.383,4.147,3.43,4.864l20.787,7.219c1.638,5.684,3.891,11.162,6.758,16.435l-9.574,19.764c-0.922,1.996-0.563,4.352,0.973,5.887l15.667,15.616c1.536,1.587,3.891,1.946,5.837,1.024l19.866-9.574c5.222,2.816,10.701,5.12,16.384,6.758l7.219,20.787c0.717,2.049,2.662,3.431,4.864,3.431h22.169c2.151,0,4.096-1.382,4.813-3.431l7.219-20.838c5.683-1.587,11.162-3.891,16.384-6.707l19.866,9.574c1.946,0.922,4.301,0.564,5.837-1.024l15.667-15.616c1.536-1.536,1.946-3.891,0.973-5.887l-9.574-19.764c2.816-5.171,5.12-10.649,6.758-16.435l20.838-7.219c2.048-0.717,3.43-2.662,3.43-4.864V174.131z M330.548,402.789v39.834c0,12.8-10.445,23.245-23.245,23.245H204.75c-12.8,0-23.245-10.445-23.245-23.245v-39.834c0-9.113,7.424-16.538,16.537-16.538h115.968C323.124,386.252,330.548,393.676,330.548,402.789z M289.935,438.551c0-2.83-2.293-5.12-5.12-5.12h-57.573c-2.827,0-5.12,2.29-5.12,5.12c0,2.83,2.292,5.12,5.12,5.12h57.573C287.642,443.671,289.935,441.381,289.935,438.551z M289.935,413.596c0-2.83-2.293-5.12-5.12-5.12h-57.573c-2.827,0-5.12,2.29-5.12,5.12c0,2.83,2.292,5.12,5.12,5.12h57.573C287.642,418.716,289.935,416.426,289.935,413.596z M256.052,511.999c20.838,0,38.093-15.668,40.602-35.891h-81.254C217.908,496.332,235.214,511.999,256.052,511.999z"></path></svg>