<svg xmlns="http://www.w3.org/2000/svg" data-name="Artboard 30" viewBox="0 0 64 64" id="Love"><path fill="#b0bbf4" d="M42 57H37a1 1 0 01-1-1V51a1 1 0 011-1H54a1 1 0 011 1v5a1 1 0 01-1 1H42zM22 57h5a1 1 0 001-1V51a1 1 0 00-1-1H10a1 1 0 00-1 1v5a1 1 0 001 1H22zM32 32L20.873 20.37 17.552 16.9a8.873 8.873 0 01-2.541-6.583c.015-.24.038-.481.071-.724a8.719 8.719 0 017.407-7.529A8.652 8.652 0 0132 10.889h0a8.486 8.486 0 0116.915-1.3c.033.243.056.484.071.724A8.873 8.873 0 0146.445 16.9L43.124 20.37 32 32z" class="colorf4b2b0 svgShape"></path><path fill="#767fad" d="M8.364 42.778A8.941 8.941 0 0110.993 49H10a2 2 0 00-2 2v5a2 2 0 002 2v4a1 1 0 001 1H25a1 1 0 001-1V58h1a2 2 0 002-2V51a2 2 0 00-2-2H26V43.143a10.93 10.93 0 00-3.222-7.779l-6.035-6.035a4.5 4.5 0 00-6.186-.186l-.679-.678A3.023 3.023 0 019 26.344V14a4.021 4.021 0 00-.8-2.4A3.963 3.963 0 005 10H5a3.968 3.968 0 00-3.2 1.6A4.027 4.027 0 001 14V34.172a2.98 2.98 0 00.879 2.121zM24 61H12V58H24zm3-5H10V51H27zM3 14a2.012 2.012 0 01.4-1.2A1.983 1.983 0 015 12H5a1.984 1.984 0 011.6.8A2.009 2.009 0 017 14V26.344a4.967 4.967 0 001.464 3.535l.893.893a4.535 4.535 0 00.972 4.971l4.964 4.965 1.414-1.415-4.964-4.964a2.536 2.536 0 113.586-3.586l6.035 6.035A8.945 8.945 0 0124 43.143V49H12.993a10.927 10.927 0 00-3.215-7.636L3.293 34.88A1 1 0 013 34.172zM59 10h0a3.965 3.965 0 00-3.2 1.6A4.024 4.024 0 0055 14V26.344a3.023 3.023 0 01-.878 2.121l-.679.678a4.5 4.5 0 00-6.186.186l-6.035 6.035A10.93 10.93 0 0038 43.143V49H37a2 2 0 00-2 2v5a2 2 0 002 2h1v4a1 1 0 001 1H53a1 1 0 001-1V58a2 2 0 002-2V51a2 2 0 00-2-2h-.993a8.941 8.941 0 012.629-6.222l6.486-6.485A2.983 2.983 0 0063 34.172V14a4.022 4.022 0 00-.8-2.4A3.966 3.966 0 0059 10zM52 61H40V58H52zm2-5H37V51H54zm7-21.828a.993.993 0 01-.293.707l-6.485 6.485A10.927 10.927 0 0051.007 49H40V43.143a8.945 8.945 0 012.636-6.365l6.035-6.035a2.536 2.536 0 113.586 3.586l-4.964 4.964 1.414 1.415 4.964-4.965a4.535 4.535 0 00.972-4.971l.893-.893A4.967 4.967 0 0057 26.344V14a1.99 1.99 0 01.4-1.2 2.06 2.06 0 013.2 0A2.012 2.012 0 0161 14zM31.274 32.691a1 1 0 001.449 0l14.445-15.1a9.856 9.856 0 002.816-7.336c-.016-.263-.042-.528-.078-.8a9.76 9.76 0 00-8.279-8.387A9.188 9.188 0 0034.341 3.36 9.844 9.844 0 0032 6.473 9.862 9.862 0 0029.656 3.36 9.188 9.188 0 0022.37 1.068a9.759 9.759 0 00-8.279 8.388c-.036.268-.062.533-.078.8a9.855 9.855 0 002.816 7.335zM16.009 10.375c.013-.216.034-.434.064-.651a7.735 7.735 0 016.535-6.671A7.629 7.629 0 0123.5 3a7.227 7.227 0 014.831 1.856A8.051 8.051 0 0131 10.889a1 1 0 002 0 8.051 8.051 0 012.668-6.033 7.231 7.231 0 015.721-1.8 7.736 7.736 0 016.535 6.67c.03.218.051.436.064.651a7.857 7.857 0 01-2.265 5.832L32 30.555 18.274 16.206A7.856 7.856 0 0116.009 10.375z" class="colorb3404a svgShape"></path><rect width="2" height="2" x="39" y="53" fill="#767fad" class="colorb3404a svgShape"></rect><rect width="2" height="2" x="23" y="53" fill="#767fad" class="colorb3404a svgShape"></rect></svg>