<svg xmlns="http://www.w3.org/2000/svg" enable-background="new 0 0 64 64" viewBox="0 0 64 64" id="clean-code"><rect width="13.5" height="10.6" x="25.2" y="46.4" fill="#ccc"></rect><polygon fill="#e6e6e6" points="44.7 62.6 20.1 62.6 19.7 55.6 44.3 55.6"></polygon><path fill="#515151" d="M64,4.5V47c0,1.7-1.4,3-3,3H3c-1.7,0-3-1.4-3-3V4.5c0-1.7,1.4-3,3-3H61C62.6,1.4,64,2.8,64,4.5z"></path><path fill="#e6e6e6" d="M64,39.2V47c0,1.7-1.4,3-3,3H3c-1.7,0-3-1.4-3-3v-7.8H64z"></path><rect width="57.7" height="31.4" x="3.2" y="4.7" fill="#92d3ff"></rect><g><polygon fill="#d1cfcf" points="42.6 16.6 42.6 16.6 38.8 18 38.8 18 31.9 11.4 31.8 11.4 31.8 6.4 31.8 6.4"></polygon><polygon fill="#e6e6e6" points="31.8 6.4 31.8 11.4 25.1 18 25.1 18 21.4 16.6 21.4 16.6"></polygon><polygon fill="#d1cfcf" points="25.2 23.2 21.4 24.6 21.4 16.6 25.1 18 25.1 23.2"></polygon><polygon fill="#acacac" points="31.8 29.5 31.8 34.6 21.4 24.6 25.2 23.2"></polygon><polygon fill="#d1cfcf" points="42.6 24.6 31.8 34.6 31.8 34.6 31.8 29.5 31.9 29.6 38.8 23.2"></polygon><polygon fill="none" points="31.8 20.5 32 20.6 31.8 20.7"></polygon><polygon fill="#e6e6e6" points="38.8 23.2 31.9 29.6 31.8 29.5 31.8 20.5"></polygon><polygon fill="#d1cfcf" points="31.8 20.5 31.8 29.5 25.2 23.2"></polygon><polygon fill="#e6e6e6" points="31.8 20.5 25.2 23.2 25.1 23.2 25.1 18"></polygon><polygon fill="#fff" points="31.8 11.4 31.8 20.5 25.1 18 25.1 18"></polygon><polygon fill="#e6e6e6" points="38.8 18 38.8 18 31.8 20.5 31.8 11.4 31.9 11.4"></polygon><polygon fill="#d1cfcf" points="38.8 18 38.8 23.2 38.8 23.2 31.8 20.5"></polygon><polygon fill="#e6e6e6" points="42.6 16.6 42.6 24.6 38.8 23.2 38.8 23.2 38.8 18"></polygon></g></svg>