<svg xmlns="http://www.w3.org/2000/svg" xmlns:xlink="http://www.w3.org/1999/xlink" viewBox="0 0 512 512" id="Tent"><defs><path id="a" d="M253.115 431.108h253.113V5.598H.002v425.51h253.113z" fill="#000000" class="color000000 svgShape"></path></defs><g fill="none" fill-rule="evenodd"><path fill="#767fad" d="M450.402 452.627H55.823v-75.982L253.11 77.881l197.292 298.764z" class="colorcb9963 svgShape"></path><path fill="#2b3151" d="M253.112 287.514c32.05 0 58.028 25.912 58.028 57.88v107.234H195.083V345.395c0-31.969 25.979-57.881 58.029-57.881" class="color513a2b svgShape"></path><path fill="#767fad" d="M273.603 47.006 13.208 439.361M9.973 451.243v-51.952M232.62 47.006l260.395 392.355M496.25 451.243v-51.952M253.112 287.514V77.882" class="colorcb9963 svgShape"></path><path fill="#010102" d="M450.402 452.627v-75.982L253.11 77.881l109.707 373.36z" opacity=".2" class="color010202 svgShape"></path><g transform="translate(0 38.037)" fill="#000000" class="color000000 svgShape"><mask id="b" fill="#fff"><use xlink:href="#a"></use></mask><path fill="#2e2e30" d="M440.428 411.21H321.112v-97.284c0-34.01-25.26-62.172-58.028-67.014V79.61l177.344 268.547v63.055Zm-235.367 0v-97.284c0-26.423 21.558-47.932 48.049-47.932 26.49 0 48.054 21.509 48.054 47.932v97.285h-96.103Zm-139.27-63.054L243.136 79.61v167.303c-32.768 4.842-58.023 33.003-58.023 67.014v97.285H65.791v-63.055Zm430.465 9.723c-5.512 0-9.974 4.457-9.974 9.949v11.892l-221.21-333.3 16.85-25.382a9.935 9.935 0 0 0-2.814-13.789c-4.588-3.03-10.771-1.777-13.824 2.806L253.11 28.4l-12.175-18.345c-3.046-4.583-9.236-5.817-13.824-2.806-4.588 3.031-5.852 9.206-2.813 13.79l16.85 25.381L19.95 379.713v-11.885c0-5.492-4.468-9.949-9.974-9.949s-9.974 4.457-9.974 9.949v51.952c0 5.491 4.468 9.948 9.974 9.948s9.974-4.457 9.974-9.948v-4.57a10.212 10.212 0 0 0 1.576-1.824l24.317-36.637v44.41c0 5.492 4.468 9.949 9.974 9.949H450.402c5.506 0 9.974-4.457 9.974-9.949v-44.41l24.317 36.637a9.81 9.81 0 0 0 1.59 1.83v4.564c0 5.491 4.461 9.948 9.973 9.948 5.506 0 9.974-4.457 9.974-9.948v-51.952c0-5.492-4.468-9.949-9.974-9.949Z" mask="url(#b)" class="color2e2e30 svgShape"></path></g></g></svg>